<?xml version="1.0" encoding="UTF-8"?>
<!DOCTYPE svg PUBLIC "-//W3C//DTD SVG 1.1//EN" "http://www.w3.org/Graphics/SVG/1.1/DTD/svg11.dtd">
<svg xmlns="http://www.w3.org/2000/svg" version="1.1" width="512px" height="512px" style="shape-rendering:geometricPrecision; text-rendering:geometricPrecision; image-rendering:optimizeQuality; fill-rule:evenodd; clip-rule:evenodd" xmlns:xlink="http://www.w3.org/1999/xlink">
<g><path style="opacity:0.975" fill="#76ffe4" d="M 248.5,-0.5 C 253.167,-0.5 257.833,-0.5 262.5,-0.5C 271.483,2.318 277.317,8.318 280,17.5C 280.667,36.8333 280.667,56.1667 280,75.5C 275.047,90.7372 264.547,96.9039 248.5,94C 239.333,91.5 233.5,85.6667 231,76.5C 230.333,56.8333 230.333,37.1667 231,17.5C 233.683,8.318 239.517,2.318 248.5,-0.5 Z"/></g>
<g><path style="opacity:0.963" fill="#bafff1" d="M 135.5,30.5 C 144.54,29.716 152.373,32.3826 159,38.5C 168.253,54.0035 177.253,69.6702 186,85.5C 189.619,108.546 179.786,119.713 156.5,119C 151.942,118.054 147.942,116.054 144.5,113C 134.37,97.2446 124.87,81.0779 116,64.5C 112.566,51.8823 116.066,41.7156 126.5,34C 129.459,32.3957 132.459,31.2291 135.5,30.5 Z"/></g>
<g><path style="opacity:0.964" fill="#57f7d7" d="M 366.5,30.5 C 389.214,30.7163 398.714,42.0496 395,64.5C 386.667,79.1667 378.333,93.8333 370,108.5C 359.021,120.9 346.521,122.733 332.5,114C 324.561,105.985 322.061,96.4852 325,85.5C 333.747,69.6702 342.747,54.0035 352,38.5C 356.408,34.8833 361.241,32.2166 366.5,30.5 Z"/></g>
<g><path style="opacity:0.964" fill="#e0fff8" d="M 52.5,114.5 C 56.5598,114.485 60.5598,114.985 64.5,116C 80.5787,124.788 96.4121,133.954 112,143.5C 122.421,156.778 121.921,169.612 110.5,182C 102.825,187.334 94.4912,188.667 85.5,186C 69.4213,177.212 53.5879,168.046 38,158.5C 27.6661,145.195 28.1661,132.362 39.5,120C 43.7168,117.549 48.0501,115.715 52.5,114.5 Z"/></g>
<g><path style="opacity:0.964" fill="#3bedca" d="M 451.5,114.5 C 471.512,114.676 481.012,124.676 480,144.5C 478.726,149.714 476.393,154.381 473,158.5C 457.412,168.046 441.579,177.212 425.5,186C 410.68,189.846 399.847,185.013 393,171.5C 389.952,161.03 391.952,151.697 399,143.5C 412.167,135.667 425.333,127.833 438.5,120C 442.717,117.549 447.05,115.715 451.5,114.5 Z"/></g>
<g><path style="opacity:0.975" fill="#f2fffc" d="M -0.5,262.5 C -0.5,257.833 -0.5,253.167 -0.5,248.5C 2.318,239.517 8.318,233.683 17.5,231C 37.1667,230.333 56.8333,230.333 76.5,231C 92.2811,237.4 97.7811,248.9 93,265.5C 89.443,273.035 83.6096,277.868 75.5,280C 56.1667,280.667 36.8333,280.667 17.5,280C 8.318,277.317 2.318,271.483 -0.5,262.5 Z"/></g>
<g><path style="opacity:0.975" fill="#2ee5c5" d="M 511.5,248.5 C 511.5,253.167 511.5,257.833 511.5,262.5C 508.682,271.483 502.682,277.317 493.5,280C 473.833,280.667 454.167,280.667 434.5,280C 419.991,274.494 414.158,263.994 417,248.5C 419.5,239.333 425.333,233.5 434.5,231C 454.167,230.333 473.833,230.333 493.5,231C 502.682,233.683 508.682,239.517 511.5,248.5 Z"/></g>
<g><path style="opacity:0.965" fill="#11aeb9" d="M 89.5,323.5 C 110.015,323.845 119.515,334.178 118,354.5C 116.258,361.492 112.425,366.992 106.5,371C 92.9086,378.267 79.5753,385.934 66.5,394C 48.2022,399.602 36.0355,393.435 30,375.5C 28.7497,362.5 33.9164,353 45.5,347C 59.8571,338.325 74.5237,330.492 89.5,323.5 Z"/></g>
<g><path style="opacity:0.965" fill="#26dbbf" d="M 413.5,323.5 C 417.56,323.485 421.56,323.985 425.5,325C 441.579,333.788 457.412,342.954 473,352.5C 483.563,366.421 482.73,379.588 470.5,392C 463.266,396.367 455.6,397.367 447.5,395C 430.927,386.466 414.761,377.299 399,367.5C 388.579,354.222 389.079,341.388 400.5,329C 404.561,326.265 408.894,324.432 413.5,323.5 Z"/></g>
<g><path style="opacity:0.963" fill="#0fb8bb" d="M 157.5,391.5 C 180.24,391.74 189.74,403.073 186,425.5C 177.13,442.078 167.63,458.245 157.5,474C 144.309,483.285 131.809,482.452 120,471.5C 114.915,463.744 113.581,455.411 116,446.5C 124.747,430.67 133.747,415.004 143,399.5C 147.305,395.655 152.138,392.988 157.5,391.5 Z"/></g>
<g><path style="opacity:0.963" fill="#1bceb7" d="M 343.5,391.5 C 352.924,390.559 361.09,393.226 368,399.5C 377.253,415.004 386.253,430.67 395,446.5C 398.576,469.586 388.743,480.753 365.5,480C 361.049,478.878 357.049,476.878 353.5,474C 343.37,458.245 333.87,442.078 325,425.5C 321.035,408.418 327.202,397.084 343.5,391.5 Z"/></g>
<g><path style="opacity:0.975" fill="#0dbfb9" d="M 262.5,511.5 C 257.833,511.5 253.167,511.5 248.5,511.5C 239.517,508.682 233.683,502.682 231,493.5C 230.333,473.833 230.333,454.167 231,434.5C 236.506,419.991 247.006,414.158 262.5,417C 271.667,419.5 277.5,425.333 280,434.5C 280.667,454.167 280.667,473.833 280,493.5C 277.317,502.682 271.483,508.682 262.5,511.5 Z"/></g>
</svg>
